<svg width="48" height="48" viewBox="0 0 48 48" fill="none" xmlns="http://www.w3.org/2000/svg">
<g clip-path="url(#clip0_1234_8622)">
<path d="M11.0059 1.79382e-05C10.874 -0.000771643 10.7434 0.0245123 10.6214 0.074415C10.4993 0.124318 10.3884 0.197854 10.2949 0.290793C10.2014 0.383732 10.1273 0.494239 10.0766 0.615956C10.026 0.737673 9.99998 0.868197 10 1.00002V24C10 24.2652 10.1054 24.5196 10.2929 24.7071C10.4804 24.8947 10.7348 25 11 25C11.2652 25 11.5196 24.8947 11.7071 24.7071C11.8946 24.5196 12 24.2652 12 24V2.51564L24 7.66017V42H10V38.8985C10.6609 39.0341 11.3425 39.0346 12.0037 38.8999C12.6648 38.7651 13.2918 38.498 13.847 38.1144C14.4021 37.7309 14.8739 37.239 15.2338 36.6683C15.5938 36.0976 15.8345 35.46 15.9415 34.7938C16.0485 34.1276 16.0196 33.4467 15.8564 32.792C15.6932 32.1372 15.3992 31.5224 14.992 30.9843C14.5849 30.4463 14.073 29.9962 13.4873 29.6612C12.9016 29.3262 12.2542 29.1133 11.584 29.0352C11.3149 28.3999 10.9169 27.8273 10.4154 27.3536C9.91378 26.8799 9.31943 26.5153 8.66983 26.2829C8.02024 26.0505 7.32951 25.9553 6.64126 26.0033C5.95301 26.0513 5.28219 26.2415 4.67116 26.5618C4.06012 26.8822 3.52214 27.3257 3.09118 27.8645C2.66022 28.4033 2.34565 29.0255 2.16732 29.692C1.98899 30.3585 1.95079 31.0547 2.05511 31.7367C2.15943 32.4187 2.40402 33.0716 2.77344 33.6543C2.27203 34.3337 2.00102 35.1556 2 36C2.00113 37.0605 2.42292 38.0773 3.17282 38.8272C3.92272 39.5771 4.93948 39.9989 6 40C6.70567 39.9921 7.39631 39.7952 8 39.4297V42H1C0.734784 42 0.48043 42.1054 0.292893 42.2929C0.105357 42.4804 0 42.7348 0 43C0 43.2652 0.105357 43.5196 0.292893 43.7071C0.48043 43.8947 0.734784 44 1 44H47C47.1313 44.0001 47.2614 43.9743 47.3828 43.924C47.5041 43.8738 47.6144 43.8002 47.7073 43.7073C47.8001 43.6144 47.8738 43.5042 47.924 43.3828C47.9743 43.2614 48.0001 43.1314 48 43V31C48.0001 30.8687 47.9743 30.7386 47.924 30.6172C47.8738 30.4959 47.8001 30.3856 47.7073 30.2927C47.6144 30.1999 47.5041 30.1262 47.3828 30.076C47.2614 30.0258 47.1313 29.9999 47 30H38V21C38 20.8687 37.9742 20.7386 37.924 20.6173C37.8737 20.496 37.8 20.3857 37.7072 20.2928C37.6143 20.2 37.5041 20.1263 37.3827 20.0761C37.2614 20.0258 37.1313 20 37 20H35V17C35 16.8687 34.9742 16.7386 34.924 16.6173C34.8737 16.496 34.8 16.3857 34.7072 16.2928C34.6143 16.2 34.5041 16.1263 34.3827 16.0761C34.2614 16.0258 34.1313 16 34 16H28C27.8687 16 27.7386 16.0258 27.6173 16.0761C27.4959 16.1263 27.3857 16.2 27.2928 16.2928C27.2 16.3857 27.1263 16.496 27.0761 16.6173C27.0258 16.7386 27 16.8687 27 17V20H26V7.00002C26.0002 6.804 25.9427 6.61227 25.8347 6.4487C25.7266 6.28512 25.5729 6.15694 25.3926 6.0801L11.3945 0.0800961C11.2716 0.0277034 11.1395 0.000474512 11.0059 1.79382e-05ZM14 10C13.7348 10 13.4804 10.1054 13.2929 10.2929C13.1054 10.4804 13 10.7348 13 11C13 11.2652 13.1054 11.5196 13.2929 11.7071C13.4804 11.8947 13.7348 12 14 12H16C16.2652 12 16.5196 11.8947 16.7071 11.7071C16.8946 11.5196 17 11.2652 17 11C17 10.7348 16.8946 10.4804 16.7071 10.2929C16.5196 10.1054 16.2652 10 16 10H14ZM20 10C19.7348 10 19.4804 10.1054 19.2929 10.2929C19.1054 10.4804 19 10.7348 19 11C19 11.2652 19.1054 11.5196 19.2929 11.7071C19.4804 11.8947 19.7348 12 20 12H22C22.2652 12 22.5196 11.8947 22.7071 11.7071C22.8946 11.5196 23 11.2652 23 11C23 10.7348 22.8946 10.4804 22.7071 10.2929C22.5196 10.1054 22.2652 10 22 10H20ZM14 14C13.7348 14 13.4804 14.1054 13.2929 14.2929C13.1054 14.4804 13 14.7348 13 15C13 15.2652 13.1054 15.5196 13.2929 15.7071C13.4804 15.8947 13.7348 16 14 16H16C16.2652 16 16.5196 15.8947 16.7071 15.7071C16.8946 15.5196 17 15.2652 17 15C17 14.7348 16.8946 14.4804 16.7071 14.2929C16.5196 14.1054 16.2652 14 16 14H14ZM20 14C19.7348 14 19.4804 14.1054 19.2929 14.2929C19.1054 14.4804 19 14.7348 19 15C19 15.2652 19.1054 15.5196 19.2929 15.7071C19.4804 15.8947 19.7348 16 20 16H22C22.2652 16 22.5196 15.8947 22.7071 15.7071C22.8946 15.5196 23 15.2652 23 15C23 14.7348 22.8946 14.4804 22.7071 14.2929C22.5196 14.1054 22.2652 14 22 14H20ZM14 18C13.7348 18 13.4804 18.1054 13.2929 18.2929C13.1054 18.4804 13 18.7348 13 19C13 19.2652 13.1054 19.5196 13.2929 19.7071C13.4804 19.8947 13.7348 20 14 20H16C16.2652 20 16.5196 19.8947 16.7071 19.7071C16.8946 19.5196 17 19.2652 17 19C17 18.7348 16.8946 18.4804 16.7071 18.2929C16.5196 18.1054 16.2652 18 16 18H14ZM20 18C19.7348 18 19.4804 18.1054 19.2929 18.2929C19.1054 18.4804 19 18.7348 19 19C19 19.2652 19.1054 19.5196 19.2929 19.7071C19.4804 19.8947 19.7348 20 20 20H22C22.2652 20 22.5196 19.8947 22.7071 19.7071C22.8946 19.5196 23 19.2652 23 19C23 18.7348 22.8946 18.4804 22.7071 18.2929C22.5196 18.1054 22.2652 18 22 18H20ZM29 18H33V20H29V18ZM14 22C13.7348 22 13.4804 22.1054 13.2929 22.2929C13.1054 22.4804 13 22.7348 13 23C13 23.2652 13.1054 23.5196 13.2929 23.7071C13.4804 23.8947 13.7348 24 14 24H16C16.2652 24 16.5196 23.8947 16.7071 23.7071C16.8946 23.5196 17 23.2652 17 23C17 22.7348 16.8946 22.4804 16.7071 22.2929C16.5196 22.1054 16.2652 22 16 22H14ZM20 22C19.7348 22 19.4804 22.1054 19.2929 22.2929C19.1054 22.4804 19 22.7348 19 23C19 23.2652 19.1054 23.5196 19.2929 23.7071C19.4804 23.8947 19.7348 24 20 24H22C22.2652 24 22.5196 23.8947 22.7071 23.7071C22.8946 23.5196 23 23.2652 23 23C23 22.7348 22.8946 22.4804 22.7071 22.2929C22.5196 22.1054 22.2652 22 22 22H20ZM26 22H36V42H26V22ZM28 24V26H30V24H28ZM32 24V26H34V24H32ZM14 26C13.7348 26 13.4804 26.1054 13.2929 26.2929C13.1054 26.4804 13 26.7348 13 27C13 27.2652 13.1054 27.5196 13.2929 27.7071C13.4804 27.8947 13.7348 28 14 28H16C16.2652 28 16.5196 27.8947 16.7071 27.7071C16.8946 27.5196 17 27.2652 17 27C17 26.7348 16.8946 26.4804 16.7071 26.2929C16.5196 26.1054 16.2652 26 16 26H14ZM20 26C19.7348 26 19.4804 26.1054 19.2929 26.2929C19.1054 26.4804 19 26.7348 19 27C19 27.2652 19.1054 27.5196 19.2929 27.7071C19.4804 27.8947 19.7348 28 20 28H22C22.2652 28 22.5196 27.8947 22.7071 27.7071C22.8946 27.5196 23 27.2652 23 27C23 26.7348 22.8946 26.4804 22.7071 26.2929C22.5196 26.1054 22.2652 26 22 26H20ZM6.92383 28C7.60153 27.9845 8.26441 28.1996 8.80381 28.6102C9.3432 29.0208 9.72711 29.6024 9.89258 30.2598C9.94739 30.4752 10.0724 30.6662 10.2478 30.8027C10.4232 30.9392 10.6391 31.0135 10.8613 31.0137C10.897 31.0127 10.9624 31.0069 11.0371 31C11.5075 31.0042 11.9703 31.119 12.3882 31.3351C12.806 31.5512 13.1672 31.8625 13.4425 32.2439C13.7179 32.6253 13.8997 33.0661 13.9733 33.5307C14.0469 33.9953 14.0102 34.4707 13.8661 34.9185C13.7221 35.3664 13.4748 35.774 13.1441 36.1086C12.8135 36.4433 12.4088 36.6954 11.9627 36.8448C11.5167 36.9942 11.0417 37.0365 10.5763 36.9685C10.1108 36.9005 9.66786 36.7239 9.2832 36.4531C9.16387 36.369 9.02755 36.3121 8.88383 36.2863C8.74011 36.2605 8.5925 36.2666 8.45137 36.304C8.31024 36.3414 8.17902 36.4093 8.06696 36.5029C7.95489 36.5965 7.8647 36.7135 7.80273 36.8457C7.64439 37.1906 7.39031 37.4827 7.07072 37.6874C6.75113 37.892 6.37949 38.0005 6 38C5.58957 38.0025 5.18841 37.878 4.85161 37.6434C4.5148 37.4088 4.25885 37.0758 4.11889 36.6899C3.97894 36.3041 3.96184 35.8844 4.06994 35.4885C4.17804 35.0925 4.40605 34.7397 4.72266 34.4785C4.82593 34.3913 4.91044 34.2841 4.97107 34.1632C5.0317 34.0424 5.0672 33.9106 5.07542 33.7757C5.08363 33.6407 5.0644 33.5056 5.01887 33.3783C4.97334 33.251 4.90247 33.1343 4.81055 33.0352C4.41561 32.6139 4.15107 32.0873 4.04889 31.519C3.94671 30.9507 4.01126 30.3649 4.23473 29.8324C4.4582 29.3 4.83104 28.8436 5.30823 28.5185C5.78541 28.1933 6.34654 28.0132 6.92383 28ZM28 28V30H30V28H28ZM32 28V30H34V28H32ZM20 30C19.7348 30 19.4804 30.1054 19.2929 30.2929C19.1054 30.4804 19 30.7348 19 31C19 31.2652 19.1054 31.5196 19.2929 31.7071C19.4804 31.8947 19.7348 32 20 32H22C22.2652 32 22.5196 31.8947 22.7071 31.7071C22.8946 31.5196 23 31.2652 23 31C23 30.7348 22.8946 30.4804 22.7071 30.2929C22.5196 30.1054 22.2652 30 22 30H20ZM28 32V34H30V32H28ZM32 32V34H34V32H32ZM38 32H46V42H45V39C45.0001 38.8687 44.9743 38.7386 44.924 38.6172C44.8738 38.4959 44.8001 38.3856 44.7073 38.2927C44.6144 38.1999 44.5041 38.1262 44.3828 38.076C44.2614 38.0258 44.1313 37.9999 44 38H40C39.8687 37.9999 39.7386 38.0258 39.6172 38.076C39.4959 38.1262 39.3856 38.1999 39.2927 38.2927C39.1999 38.3856 39.1262 38.4959 39.076 38.6172C39.0257 38.7386 38.9999 38.8687 39 39V42H38V32ZM20 34C19.7348 34 19.4804 34.1054 19.2929 34.2929C19.1054 34.4804 19 34.7348 19 35C19 35.2652 19.1054 35.5196 19.2929 35.7071C19.4804 35.8947 19.7348 36 20 36H22C22.2652 36 22.5196 35.8947 22.7071 35.7071C22.8946 35.5196 23 35.2652 23 35C23 34.7348 22.8946 34.4804 22.7071 34.2929C22.5196 34.1054 22.2652 34 22 34H20ZM39 34V36H41V34H39ZM43 34V36H45V34H43ZM28 36V38H30V36H28ZM32 36V38H34V36H32ZM20 38C19.7348 38 19.4804 38.1054 19.2929 38.2929C19.1054 38.4804 19 38.7348 19 39C19 39.2652 19.1054 39.5196 19.2929 39.7071C19.4804 39.8947 19.7348 40 20 40H22C22.2652 40 22.5196 39.8947 22.7071 39.7071C22.8946 39.5196 23 39.2652 23 39C23 38.7348 22.8946 38.4804 22.7071 38.2929C22.5196 38.1054 22.2652 38 22 38H20ZM41 40H43V42H41V40ZM1 46C0.734784 46 0.48043 46.1054 0.292893 46.2929C0.105357 46.4804 0 46.7348 0 47C0 47.2652 0.105357 47.5196 0.292893 47.7071C0.48043 47.8947 0.734784 48 1 48H47C47.2652 48 47.5196 47.8947 47.7071 47.7071C47.8946 47.5196 48 47.2652 48 47C48 46.7348 47.8946 46.4804 47.7071 46.2929C47.5196 46.1054 47.2652 46 47 46H1Z" fill="#E4E4E7" fill-opacity="0.8"/>
</g>
<defs>
<clipPath id="clip0_1234_8622">
<rect width="48" height="48" fill="white"/>
</clipPath>
</defs>
</svg>
